<?xml version="1.0" encoding="UTF-8"?>
<svg width="1200pt" height="1200pt" version="1.1" viewBox="0 0 1200 1200" xmlns="http://www.w3.org/2000/svg">
 <path d="m1025.3 876.73-274.13-273.94 274.05-273.88c40.766-40.742 40.766-106.78 0-147.51-40.766-40.715-106.86-40.715-147.57 0l-274.06 273.9-274.08-273.9c-40.738-40.715-106.82-40.73-147.59 0.011718-40.754 40.73-40.754 106.77 0.015625 147.5l274.07 273.88-274.09 273.94c-40.754 40.715-40.754 106.77 0 147.48 20.387 20.371 47.086 30.559 73.801 30.559s53.414-10.188 73.801-30.559l274.09-273.94 274.12 273.94c20.383 20.371 47.086 30.559 73.789 30.559 26.699 0 53.426-10.188 73.785-30.559 40.766-40.715 40.766-106.77 0-147.48z"/>
</svg>
