<?xml version="1.0" encoding="UTF-8"?><svg id="uuid-6e83b756-bc28-41f2-be6c-342bc31bb47c" xmlns="http://www.w3.org/2000/svg" viewBox="0 0 85.05 84.76"><path d="M75.53,18.36c-1.57,.7-2.43,2.62-1.66,4.33l.89,2-5.85,2.61c-3.05-5.31-7.41-9.35-12.62-11.83l2.3-5.98,2.06,.79c1.65,.63,3.51-.19,4.14-1.84,.63-1.65-.19-3.51-1.84-4.14L52.91,.21c-1.65-.63-3.51,.19-4.14,1.84-.63,1.65,.19,3.51,1.84,4.14l2.06,.79-2.3,5.98c-5.6-1.44-11.55-1.36-17.29,.34l-2.54-5.71,2-.89c1.57-.7,2.43-2.62,1.66-4.33S31.59-.04,29.88,.72l-9.85,4.39c-1.57,.7-2.43,2.62-1.66,4.33s2.62,2.43,4.33,1.66l2-.89,2.61,5.85c-5.31,3.05-9.35,7.41-11.97,12.68l-5.98-2.3,.79-2.06c.63-1.65-.19-3.51-1.84-4.14s-3.51,.19-4.14,1.84L.21,32.06c-.63,1.65,.19,3.51,1.84,4.14s3.51-.19,4.14-1.84l.79-2.06,5.98,2.3c-1.44,5.6-1.36,11.55,.34,17.29l-5.71,2.54-.89-2c-.7-1.57-2.62-2.43-4.33-1.66S-.04,53.38,.72,55.09l4.39,9.85c.7,1.57,2.62,2.43,4.33,1.66s2.43-2.62,1.66-4.33l-.89-2,5.85-2.61c3.05,5.31,7.41,9.35,12.62,11.83l-2.3,5.98-2.06-.79c-1.65-.63-3.51,.19-4.14,1.84s.19,3.51,1.84,4.14l10.11,3.88c1.65,.63,3.51-.19,4.14-1.84s-.19-3.51-1.84-4.14l-2.06-.79,2.3-5.98c5.6,1.44,11.55,1.36,17.44-.41l2.61,5.85-2,.89c-1.57,.7-2.43,2.62-1.66,4.33s2.62,2.43,4.33,1.66l9.85-4.39c1.57-.7,2.43-2.62,1.66-4.33-.76-1.71-2.62-2.43-4.33-1.66l-2,.89-2.61-5.85c5.31-3.05,9.35-7.41,11.83-12.62l5.98,2.3-.79,2.06c-.63,1.65,.19,3.51,1.84,4.14s3.51-.19,4.14-1.84l3.88-10.11c.63-1.65-.19-3.51-1.84-4.14-1.65-.63-3.51,.19-4.14,1.84l-.79,2.06-5.98-2.3c1.44-5.6,1.36-11.55-.34-17.29l5.85-2.61,.89,2c.7,1.57,2.62,2.43,4.33,1.66,1.71-.76,2.43-2.62,1.66-4.33l-4.39-9.85c-.98-1.44-2.98-2.09-4.55-1.39h0ZM32.26,52.17c-3.57,1.59-7.84,.07-9.49-3.64s-.07-7.84,3.64-9.49,7.84-.07,9.49,3.64c1.65,3.71-.07,7.9-3.64,9.49Zm23.31,5.87c-3.57,1.59-7.84,.07-9.49-3.64-1.59-3.57-.07-7.84,3.64-9.49s7.84-.07,9.49,3.64c1.65,3.71-.07,7.9-3.64,9.49Zm-8.87-25.3c-2.57,1.14-5.46,.04-6.6-2.53-1.14-2.57-.04-5.46,2.53-6.6s5.46-.04,6.6,2.53c1.14,2.57,.04,5.46-2.53,6.6Z"/></svg>