<?xml version="1.0" encoding="UTF-8"?>
<svg width="100pt" height="100pt" version="1.1" viewBox="0 0 100 100" xmlns="http://www.w3.org/2000/svg">
 <path d="m59.461 50 32.242-32.246c2.6094-2.6094 2.6094-6.8516 0-9.457-2.6133-2.6172-6.8516-2.6172-9.4609 0l-32.246 32.242-32.238-32.242c-2.6094-2.6172-6.8477-2.6172-9.4609 0-2.6094 2.6094-2.6094 6.8477 0 9.457l32.246 32.246-32.246 32.246c-2.6094 2.6094-2.6094 6.8438 0 9.457 2.6133 2.6094 6.8516 2.6094 9.4609 0l32.238-32.246 32.246 32.246c2.6094 2.6094 6.8477 2.6094 9.4609 0 2.6094-2.6133 2.6094-6.8477 0-9.457z"/>
</svg>
