<?xml version="1.0" encoding="UTF-8"?><svg id="uuid-de832ae1-9331-4c02-aaf8-4433d846f6a3" xmlns="http://www.w3.org/2000/svg" viewBox="0 0 515.71 411.12"><g id="uuid-f418f72b-c7e3-4597-85c2-cefc8253df02"><path d="M410.87,411.12H104.82c-.57-.16-1.13-.39-1.71-.48-1.32-.21-2.67-.3-3.99-.53-9.42-1.64-17.77-5.56-24.84-12.02-10.28-9.38-16.04-21.09-17.22-34.91-.42-4.93,0-9.94-.02-14.91-.05-7.79-.09-15.58-.26-23.37-.09-3.96-.39-7.91-.73-11.86-.71-8.29-1.67-16.56-3.15-24.75-1.9-10.52-4.49-20.85-8.44-30.81-3.46-8.73-7.83-16.95-14.19-23.96-6.83-7.53-15.12-12.57-25.19-14.52-1.63-.32-3.25-.64-4.82-.95-.41-2.32-.33-23.89,.09-25.53,.87-.18,1.77-.4,2.69-.54,10.05-1.51,18.54-6.05,25.66-13.23,5.45-5.5,9.54-11.95,12.85-18.91,5.69-11.97,9.05-24.66,11.37-37.65,1.33-7.47,2.4-14.97,2.88-22.55,.44-7.1,.8-14.2,1.19-21.31,.06-1.07,.11-2.15,.11-3.22,0-4.5,.02-9,0-13.5-.04-6.44-.58-12.88,.65-19.29,2.46-12.84,8.65-23.5,18.83-31.69C85.44,3.5,95.65,0,107.11,0c47.91,.04,95.82,0,143.72,0,52.41,0,104.82-.01,157.23,.01,2.74,0,5.52,.07,8.22,.51,10.68,1.73,19.85,6.5,27.35,14.29,10.76,11.19,15.65,24.66,15.02,40.13-.37,9.07-.32,18.13,0,27.2,.4,11.01,1.27,21.98,2.84,32.89,1.51,10.45,3.67,20.74,6.96,30.78,3.08,9.43,7.03,18.44,12.93,26.49,6.59,8.99,14.95,15.54,25.85,18.52,2.76,.75,5.54,1.58,8.48,1.36v26.21c-.53-.01-1.09-.14-1.59-.03-3.14,.69-6.33,1.21-9.37,2.21-9.86,3.24-17.42,9.59-23.47,17.89-5.11,7.01-8.74,14.77-11.63,22.9-5.35,15.02-8.12,30.59-9.6,46.39-.77,8.22-1.26,16.47-1.46,24.72-.21,8.45,.08,16.92,.15,25.38,.11,12.91-3.79,24.47-11.96,34.46-8.28,10.14-18.89,16.3-31.99,17.98-1.31,.17-2.6,.54-3.9,.82ZM178.62,95.24c-.53,2.02-.47,218.2,.05,220.05,.67,0,1.39,0,2.12,0,29.43,0,58.86-.02,88.29,0,5.92,0,11.8-.38,17.66-1.19,8.62-1.19,16.97-3.34,24.89-6.96,12.36-5.66,22.21-14.08,28.27-26.43,5.76-11.74,7.32-24.19,5.42-37.08-1.5-10.17-5.67-19.13-12.6-26.74-8.39-9.22-18.97-14.54-31.03-17.13-1.77-.38-3.56-.68-5.34-1.02,.55-.42,1.05-.6,1.56-.73,9.84-2.41,18.04-7.56,24.64-15.17,9.14-10.54,13.35-22.77,12.31-36.78-.75-10.03-3.84-19.17-9.89-27.24-6.74-8.99-15.73-14.89-26.18-18.69-9.89-3.6-20.13-4.93-30.62-4.91-29.09,.06-58.19,.02-87.28,.02-.73,0-1.46,0-2.27,0Z"/><path d="M214.67,286.12v-70.33c.64-.06,1.22-.15,1.8-.15,16.19,0,32.38-.11,48.57,.1,8.42,.11,16.7,1.46,24.53,4.79,7.64,3.25,13.64,8.25,16.91,16.09,2.21,5.31,2.85,10.88,2.51,16.58-.26,4.38-1.08,8.65-2.91,12.68-3.39,7.5-9.23,12.41-16.65,15.59-5.59,2.39-11.48,3.73-17.53,4.14-4.62,.31-9.25,.46-13.88,.48-13.64,.06-27.28,.03-40.91,.04-.73,0-1.46,0-2.45,0Z"/><path d="M214.68,124.37c1.05,0,1.84,0,2.64,0,13.97,0,27.94,.01,41.91,0,6.6,0,13.14,.49,19.45,2.63,6.19,2.09,11.53,5.4,15.3,10.89,2.52,3.67,3.96,7.76,4.47,12.16,.7,6.01,.39,11.94-1.93,17.62-2.63,6.43-7.24,11.05-13.29,14.31-5.19,2.8-10.8,4.32-16.59,5.25-5.12,.83-10.28,.93-15.45,.94-11.35,.02-22.7,.02-34.05,.02-.78,0-1.56-.1-2.46-.15v-63.69Z"/></g></svg>