<?xml version="1.0" encoding="utf-8"?>
<!-- Generator: Adobe Illustrator 27.0.0, SVG Export Plug-In . SVG Version: 6.00 Build 0)  -->
<svg version="1.1" id="Ebene_1" xmlns="http://www.w3.org/2000/svg" xmlns:xlink="http://www.w3.org/1999/xlink" x="0px" y="0px"
	 viewBox="0 0 79.8 77.8" style="enable-background:new 0 0 79.8 77.8;" xml:space="preserve">
<g transform="translate(0)">
	<path d="M35,34.7c-0.3-1-0.6-2-1-3.1s-0.6-2-0.9-3c-0.3-0.9-0.5-1.8-0.7-2.6h-0.1c-0.3,1.4-0.7,2.9-1.1,4.3c-0.5,1.6-1,3.3-1.5,4.9
		c-0.5,1.7-1,3.3-1.5,4.7h8.4c-0.2-0.7-0.5-1.5-0.8-2.4C35.6,36.6,35.3,35.7,35,34.7z"/>
	<path d="M65.6,0H14.1C6.3,0,0,6.3,0,14.1v49.5c0,7.8,6.3,14.1,14.1,14.1h51.5c7.8,0,14.1-6.3,14.1-14.1V14.1
		C79.8,6.3,73.4,0,65.6,0z M48.9,54.9h-7c-0.2,0-0.5-0.1-0.5-0.4l-2.7-7.9H26.3l-2.5,7.8c-0.1,0.3-0.3,0.5-0.6,0.5h-6.3
		c-0.4,0-0.5-0.2-0.4-0.6l10.7-30.8c0.1-0.3,0.2-0.7,0.3-1.1c0.1-0.7,0.2-1.4,0.2-2.2c0-0.2,0.1-0.3,0.3-0.4h8.6
		c0.3,0,0.4,0.1,0.4,0.3l12.1,34.2C49.3,54.8,49.2,54.9,48.9,54.9z M60.2,54.4c0,0.4-0.1,0.5-0.4,0.5h-6.5c-0.3,0-0.5-0.2-0.5-0.4
		c0,0,0-0.1,0-0.1V28.8c0-0.3,0.1-0.5,0.4-0.5h6.6c0.3,0,0.4,0.2,0.4,0.5L60.2,54.4z M59.5,24.4c-0.8,0.8-1.9,1.2-3,1.2
		c-1.1,0-2.2-0.4-3-1.2c-0.8-0.8-1.2-1.9-1.1-3.1c0-1.1,0.4-2.2,1.2-3c0.8-0.8,1.9-1.2,3-1.2c1.1-0.1,2.2,0.4,3,1.2
		C61,20.1,61,22.7,59.5,24.4L59.5,24.4z"/>
</g>
</svg>
