<?xml version="1.0" encoding="UTF-8"?><svg id="uuid-c15bd874-fc0a-4ca3-9004-89de036e8a36" xmlns="http://www.w3.org/2000/svg" viewBox="0 0 462.07 525.51"><g id="uuid-690e0bd6-36aa-45b7-8e52-96883c91fdc5"><path d="M459.73,.03c-76.22,0-152.43,0-228.65,0S78.33,.04,1.95,0C.45,0,.01,.31,0,1.89-.03,7.61,.66,13.27,1.06,18.95c.38,5.36,.9,10.72,1.36,16.08,.49,5.62,1,11.24,1.48,16.87,.47,5.46,.92,10.93,1.4,16.39,.48,5.57,.99,11.14,1.48,16.71,.47,5.36,.93,10.72,1.4,16.07,.49,5.57,.99,11.14,1.48,16.71,.47,5.36,.94,10.71,1.41,16.07,.49,5.52,.98,11.03,1.46,16.55,.47,5.3,.92,10.61,1.39,15.91,.49,5.52,1,11.03,1.49,16.54,.47,5.3,.94,10.61,1.41,15.91,.49,5.46,.98,10.92,1.47,16.39,.47,5.3,.93,10.61,1.4,15.91,.48,5.36,.99,10.71,1.47,16.06,.58,6.52,1.11,13.05,1.7,19.57,.59,6.58,1.23,13.15,1.82,19.72,.58,6.52,1.1,13.05,1.69,19.57,.59,6.58,1.24,13.14,1.83,19.72,.69,7.74,1.31,15.49,2,23.24,.69,7.74,1.46,15.48,2.16,23.22,.69,7.74,1.31,15.49,2,23.23,.69,7.74,1.47,15.48,2.16,23.22,.69,7.74,1.3,15.49,1.99,23.24,.91,10.13,1.9,20.25,2.76,30.38,.1,1.23,.48,1.68,1.64,2.01,22.71,6.33,45.4,12.75,68.11,19.08,36.78,10.25,73.53,20.61,110.38,30.57,4.2,1.13,8.19,2.32,12.85,1.09,34.58-9.14,69.06-18.67,103.54-28.21,22.04-6.1,44.1-12.14,65.99-18.78,4.93-1.5,9.87-2.96,14.55-5.18,1.35-.64,2.36-1.47,2.5-3.18,.5-6.05,1.12-12.09,1.68-18.13,.48-5.2,.93-10.4,1.4-15.59,.49-5.35,.99-10.71,1.48-16.06,.47-5.2,.92-10.39,1.39-15.59,.49-5.46,1-10.92,1.49-16.38,.48-5.3,.94-10.61,1.42-15.91,.48-5.41,.98-10.82,1.46-16.23,.47-5.25,.92-10.5,1.39-15.75,.49-5.52,1-11.03,1.49-16.54,.47-5.25,.92-10.5,1.39-15.75,.49-5.57,1-11.14,1.49-16.71,.47-5.25,.93-10.5,1.4-15.75,.49-5.46,.99-10.92,1.48-16.39,.47-5.3,.92-10.61,1.39-15.91,.49-5.52,1-11.03,1.49-16.55,.47-5.36,.92-10.72,1.4-16.07,.49-5.52,1-11.03,1.48-16.54,.47-5.36,.93-10.72,1.4-16.07,.49-5.57,.99-11.14,1.48-16.71,.47-5.31,.92-10.61,1.39-15.92,.49-5.57,.99-11.14,1.49-16.71,.49-5.52,.97-11.03,1.46-16.55,.48-5.41,.95-10.82,1.42-16.23s.93-10.82,1.41-16.23c.49-5.57,.99-11.14,1.47-16.71,.48-5.52,.93-11.04,1.41-16.55,.49-5.62,.98-11.25,1.47-16.87,.39-4.46,.8-8.91,1.15-13.37,.35-4.51,.72-9.02,.92-13.54,.1-2.27-.06-2.28-2.32-2.28ZM169.15,213.95c20.32-.04,40.64-.04,60.97-.04,32.16,0,64.33,0,96.49,.04,8.53,.01,17.06,.15,25.6,.31,4.05,.08,8.1,.19,12.11,.83,1.51,.24,2.05,.89,1.85,2.47-1.33,10.84-2.25,21.73-3.23,32.6-1.28,14.22-2.57,28.45-3.85,42.67-1.07,11.89-2.1,23.78-3.2,35.66-1.31,14.11-2.68,28.22-4.05,42.33-.62,6.36-1.36,12.71-1.96,19.08-.15,1.63-.77,2.5-2.39,3.04-14.79,4.97-29.81,9.18-44.82,13.42-23.61,6.66-47.25,13.24-71.04,19.27-2.77,.7-5.17-.25-7.62-.92-35.75-9.77-71.5-19.57-107.05-30.02-.41-.12-.81-.27-1.21-.39-3.84-1.23-3.89-1.22-4.5-5.18-1.21-7.84-2.22-15.71-3-23.61-.89-9.06-1.92-18.1-2.76-27.16-.67-7.16-1.12-14.34-1.72-21.51-.39-4.68-.62-9.36-.64-14.05,0-1.23,.35-1.49,1.52-1.48,18.61,.04,37.23,.04,55.84,0,1.26,0,1.64,.44,1.73,1.56,.33,3.76,.72,7.52,1.07,11.28,.51,5.46,1.03,10.91,1.51,16.37,.38,4.3,.78,8.59,1.04,12.89,.22,3.58,.13,3.62,3.55,4.54,18.61,5.01,37.16,10.24,55.84,15.01,3.96,1.01,7.55,.39,11.27-.51,18.31-4.45,36.53-9.25,54.58-14.66,2.08-.62,2.93-1.64,3.21-3.8,1.18-9.2,2-18.43,2.83-27.66,1.12-12.42,2.09-24.85,3.52-37.24,.19-1.64,.45-3.27,.76-4.89,.16-.8-.04-1.09-.84-1.04-.42,.03-.85,0-1.28,0-64.7-.01-129.4-.03-194.1,0-1.65,0-2.14-.38-2.08-2.06,.17-5.54,.76-11.05,1.24-16.56,.47-5.52,.9-11.04,1.37-16.55,.48-5.62,1.01-11.24,1.5-16.86,.46-5.25,.91-10.5,1.37-15.75,.5-5.67,1.02-11.34,1.52-17.02,.47-5.36,.9-10.71,1.38-16.07,.48-5.35,1-10.7,1.48-16.06,.47-5.2,.92-10.39,1.39-15.59,.49-5.41,1-10.81,1.49-16.22,.47-5.14,.91-10.28,1.39-15.43,.49-5.3,1-10.59,1.5-15.89,.46-4.87,.9-9.75,1.39-14.62,.45-4.55,.96-9.1,1.44-13.65,.06-.53,.13-1.06,.14-1.59,.08-2.38,.14-2.42,2.55-2.65,7.28-.7,14.59-.63,21.89-.74,32.37-.48,64.75-.09,97.12,.2,34.24,0,68.48,0,102.72,0,2.61,0,5.22,.11,7.83,.11,.86,0,1.21,.26,1.29,1.14,.36,4.3,.77,8.6,1.16,12.9,.82,9.13,1.64,18.26,2.45,27.39,.58,6.53,1.13,13.06,1.71,19.59,.7,7.85,1.42,15.71,2.13,23.56,.55,6.05,1.09,12.1,1.65,18.15,.67,7.22,1.32,14.43,2.05,21.64,.11,1.07-.18,1.23-1.13,1.23-16.8-.06-33.6-.07-50.4-.15-2.07-.01-4.15-.1-6.21-.5-2.12-.42-2.43-.81-2.55-2.93-.48-8.09-1.21-16.15-2.05-24.21-.78-7.47-1.55-14.94-2.36-22.41-.29-2.65-.71-5.28-1-7.93-.15-1.35-1.1-1.59-2.12-1.71-3.01-.36-6.03-.75-9.05-.97-12.82-.93-25.66-1.36-38.5-1.76-5.54-.17-11.13,.21-16.62-.4-7.35-.82-14.64-.18-21.95-.05-11.62,.21-23.23,.78-34.84,1.17-.93,.03-1.29,.32-1.38,1.27-1.17,12.03-2.4,24.05-3.56,36.07-.99,10.28-1.92,20.57-2.87,30.85-.63,6.78-1.23,13.57-1.92,20.34-.13,1.25,.24,1.51,1.43,1.5Z"/></g></svg>