<?xml version="1.0" encoding="utf-8"?>
<!-- Generator: Adobe Illustrator 27.0.0, SVG Export Plug-In . SVG Version: 6.00 Build 0)  -->
<svg version="1.1" id="Ebene_1" xmlns="http://www.w3.org/2000/svg" xmlns:xlink="http://www.w3.org/1999/xlink" x="0px" y="0px"
	 viewBox="0 0 79.8 77.8" style="enable-background:new 0 0 79.8 77.8;" xml:space="preserve">
<path d="M32.7,27c-1.2-0.5-2.6-0.7-3.9-0.7c-0.9,0-1.6,0-2.3,0c-0.5,0-0.9,0-1.4,0v11.2c0.5,0,0.9,0.1,1.3,0.1h1.8
	c1.3,0,2.6-0.2,3.8-0.6c1.1-0.3,2-0.9,2.7-1.8c0.7-1,1.1-2.2,1-3.4c0-1-0.2-2.1-0.8-3C34.5,28,33.7,27.4,32.7,27z"/>
<path d="M65.6,0H14.1C6.3,0,0,6.3,0,14.1c0,0,0,0,0,0v49.5c0,7.8,6.3,14.1,14.1,14.1c0,0,0,0,0,0h51.5c7.8,0,14.1-6.3,14.1-14.1
	c0,0,0,0,0,0V14.1C79.8,6.3,73.5,0,65.6,0C65.6,0,65.6,0,65.6,0z M41.1,38.7c-1.3,1.9-3.2,3.3-5.3,4.1c-2.4,0.8-4.9,1.2-7.5,1.1
	c-0.8,0-1.3,0-1.7,0s-0.8,0-1.4,0v10.7c0,0.2-0.1,0.4-0.4,0.5c0,0,0,0,0,0h-6.4c-0.3,0-0.4-0.1-0.4-0.4V20.3c0-0.2,0.1-0.4,0.3-0.4
	c0.6,0,1.1,0,1.9,0c0.8,0,1.6,0,2.5-0.1s1.9,0,2.9-0.1s2,0,3,0c2.3-0.1,4.6,0.3,6.8,1c1.7,0.6,3.2,1.5,4.5,2.7
	c1.1,1.1,1.9,2.4,2.4,3.8c0.5,1.4,0.8,2.8,0.8,4.3C43.2,34.1,42.5,36.6,41.1,38.7z M64.6,51.6c-0.9,1.3-2.2,2.4-3.7,3
	c-1.9,0.8-4,1.1-6,1.1c-1.5,0-3-0.1-4.5-0.4c-1.2-0.2-2.3-0.6-3.4-1.1c-0.2-0.1-0.4-0.4-0.4-0.6v-5.8c0-0.1,0-0.2,0.1-0.3
	c0.1-0.1,0.2,0,0.3,0c1.3,0.8,2.7,1.3,4.1,1.6c1.3,0.3,2.6,0.5,3.9,0.5c0.9,0.1,1.9-0.1,2.8-0.5c0.5-0.3,0.9-0.8,0.9-1.4
	c0-0.5-0.3-1-0.8-1.3c-1-0.7-2.1-1.2-3.3-1.6c-1.7-0.6-3.3-1.4-4.7-2.4c-1-0.7-1.9-1.7-2.5-2.8c-0.5-1-0.8-2.2-0.8-3.4
	c0-1.4,0.4-2.8,1.1-4c0.8-1.3,2.1-2.4,3.5-3.1c1.8-0.8,3.9-1.2,5.9-1.2c1.4,0,2.8,0.1,4.1,0.3c1,0.1,1.9,0.4,2.9,0.8
	c0.1,0.1,0.3,0.2,0.3,0.3c0,0.1,0.1,0.3,0.1,0.4v5.4c0,0.1-0.1,0.3-0.2,0.3c-0.2,0.1-0.4,0.1-0.6,0c-1-0.5-2.1-0.9-3.2-1.1
	c-1.2-0.3-2.5-0.4-3.7-0.4c-0.7,0-1.3,0.1-2,0.2c-0.4,0.1-0.8,0.3-1,0.7c-0.2,0.3-0.3,0.6-0.3,0.9c0,0.3,0.1,0.6,0.3,0.9
	c0.3,0.4,0.7,0.7,1.1,0.9c0.8,0.4,1.6,0.8,2.4,1.1c1.8,0.6,3.5,1.4,5.1,2.4c1.1,0.7,2,1.6,2.6,2.7c0.5,1.1,0.8,2.2,0.8,3.4
	C66,48.8,65.5,50.3,64.6,51.6z"/>
</svg>
