<?xml version="1.0" encoding="utf-8"?>
<!-- Generator: Adobe Illustrator 27.0.0, SVG Export Plug-In . SVG Version: 6.00 Build 0)  -->
<svg version="1.1" id="Ebene_1" xmlns="http://www.w3.org/2000/svg" xmlns:xlink="http://www.w3.org/1999/xlink" x="0px" y="0px"
	 viewBox="0 0 83.5 74" style="enable-background:new 0 0 83.5 74;" xml:space="preserve">
<g transform="translate(0 -0.012)">
	<circle cx="41.7" cy="37" r="7.3"/>
	<path d="M83.5,37c0-5.8-6.9-10.9-17.4-13.8C68.6,12.3,67.9,4,62.8,1.1S49.7,1.4,41.7,9.4c-8-8-16-11.2-20.7-8.3
		c-4.4,2.2-5.8,8.3-4.7,17.4c0.4,1.5,0.7,3.3,1.1,4.7C6.9,26.1,0,31.2,0,37s6.9,10.9,17.4,13.8c-0.4,1.8-0.7,3.3-1.1,4.7
		c-1.5,8.7,0,14.9,4.4,17.4c1.3,0.8,2.8,1.2,4.4,1.1c3.6,0,8.3-2.2,13.1-5.8c1.1-1.1,2.5-2.2,3.6-3.3c1.1,1.1,2.5,2.2,3.6,3.3
		c4.7,4,9.4,5.8,13.1,5.8c1.5,0,3-0.4,4.4-1.1c4.4-2.5,5.8-8.7,4.4-17.4c-0.4-1.5-0.7-3.3-1.1-4.7C76.6,47.9,83.5,42.8,83.5,37z
		 M61,4c3.3,1.8,4,8.7,1.8,18.1c-3.7-0.8-7.5-1.4-11.3-1.8c-2.1-3-4.4-6-6.9-8.7c5.1-5.1,10.2-8,13.8-8C59.3,3.5,60.2,3.7,61,4z
		 M53.4,43.9c-1.5,2.2-2.5,4.4-4,6.5c-2.5,0.3-5.1,0.4-7.6,0.4c-2.5,0.1-5.1-0.1-7.6-0.4c-1.5-2.1-2.8-4.3-4-6.5
		c-1.4-2.2-2.6-4.5-3.6-6.9c1.1-2.2,2.2-4.4,3.6-6.9c1.5-1.8,2.5-4,4-6.2c2.5-0.3,5.1-0.4,7.6-0.4c2.5-0.1,5.1,0.1,7.6,0.4
		c1.5,2,2.9,4.2,4,6.5c1.3,2.1,2.6,4.3,3.6,6.5C55.9,39.4,54.7,41.7,53.4,43.9z M58.8,41.3c1,2.4,1.9,4.8,2.5,7.3
		c-2.2,0.4-4.7,1.1-7.6,1.5c0.8-1.4,1.6-2.7,2.5-4C57.3,44.2,58.1,42.8,58.8,41.3z M41.7,59.9C40,58.1,38.4,56.1,37,54h9.4
		C45.1,56.1,43.5,58.1,41.7,59.9z M29.4,49.7c-2.6-0.3-5.1-0.8-7.6-1.5c0.7-2.2,1.5-4.7,2.5-7.3l2.2,4.4
		C27.6,46.7,28.5,48.2,29.4,49.7z M24.7,33c-1-2.4-1.9-4.8-2.5-7.3c2.2-0.4,4.7-1.1,7.3-1.5c-0.7,1.5-1.6,3-2.5,4.4L24.7,33z
		 M41.7,14.5c1.5,1.8,3.3,3.6,4.7,5.8H37C38.4,18.2,40,16.3,41.7,14.5z M56.6,28.6c-0.8-1.4-1.6-2.7-2.5-4c2.6,0.3,5.1,0.8,7.6,1.5
		c-0.7,2.2-1.5,4.7-2.5,7.3C58.1,31.5,57.3,30.1,56.6,28.6z M20,17.8c-1.1-6.9,0-12,2.5-13.8c0.8-0.3,1.7-0.4,2.5-0.4
		c3.6,0,8.7,2.9,14.2,8.3c-2.6,2.7-4.9,5.6-6.9,8.7c-3.8,0.3-7.5,0.7-11.3,1.5L20,17.8z M3.6,37c0-3.6,5.4-8,14.9-10.5
		c1.1,3.3,2.5,6.9,4,10.5c-1.6,3.4-2.9,6.9-4,10.5C9.1,45,3.6,41,3.6,37z M35.9,65.7c-5.4,4.4-10.2,6.2-13.1,4.7s-3.6-6.5-2.5-13.8
		l1.1-4.4c3.7,0.8,7.5,1.4,11.3,1.8c2.1,3,4.4,6,6.9,8.7C38.2,63.5,37,64.5,35.9,65.7L35.9,65.7z M63.5,56.6c1.1,6.9,0,12-2.5,13.8
		c-2.9,1.5-7.6,0-13.1-4.7c-1.1-1.1-2.2-1.8-3.3-2.9c2.6-2.7,4.9-5.6,6.9-8.7c3.8-0.4,7.5-1,11.3-1.8C62.9,53.7,63.1,55.2,63.5,56.6
		z M65,47.5c-1.1-3.3-2.5-6.9-4-10.5c1.6-3.4,2.9-6.9,4-10.5C74.4,29,79.9,33,79.9,37S74.4,45,65,47.5z"/>
</g>
</svg>
