<?xml version="1.0" encoding="utf-8"?>
<!-- Generator: Adobe Illustrator 27.0.0, SVG Export Plug-In . SVG Version: 6.00 Build 0)  -->
<svg version="1.1" id="Ebene_1" xmlns="http://www.w3.org/2000/svg" xmlns:xlink="http://www.w3.org/1999/xlink" x="0px" y="0px"
	 viewBox="0 0 74.8 74" style="enable-background:new 0 0 74.8 74;" xml:space="preserve">
<g>
	<g transform="translate(0 0)">
		<path d="M74.8,62v-51c-0.1-1.4-1-2.6-2.3-3l-15-7.2c-1.7-1.2-4-1.1-5.4,0.4c0.3-0.2,0.6-0.3,1-0.4c-0.3,0.1-0.7,0.2-1,0.4
			L22.5,28.1L9.2,18c-0.9-0.8-2.2-0.7-3,0.2l-5.1,4.6c-2.2,1.8-0.4,3.1-0.4,3.1l12.1,11l-12.1,11c0,0-1.2,0.9,0,2.6l5.6,5.1
			c0,0,1.3,1.4,3.3-0.2l12.8-9.7l30.1,27.3l0.1,0.1c0.7,0.8,1.8,1.1,2.9,0.9l17.3-8.5C74.1,64.7,74.9,63.4,74.8,62 M54.9,72.7
			c0.1-0.1,0.2-0.1,0.3-0.2C55.1,72.5,55,72.6,54.9,72.7 M55.4,72.3c0,0,0.1-0.1,0.1-0.1C55.5,72.2,55.5,72.2,55.4,72.3 M34.1,36.9
			l22.1-16.8v33.5L34.1,36.9z"/>
	</g>
</g>
</svg>
