<?xml version="1.0" encoding="UTF-8"?><svg id="uuid-4827e389-edaf-49d6-b008-4f3c9495f7ea" xmlns="http://www.w3.org/2000/svg" viewBox="0 0 512 512"><g id="uuid-13410ad3-e5ed-4a3e-97fb-c409e1b59628"><g><path d="M512,243v26c-.34,1.94-.76,3.87-1.01,5.82-1.17,9.24-1.77,18.59-3.52,27.71-11.6,60.29-40.93,110.38-87.92,149.81-36.81,30.88-79.18,49.86-126.86,56.65-7.88,1.12-15.79,2.01-23.69,3h-26c-1.78-.34-3.54-.76-5.33-1-11.2-1.53-22.55-2.32-33.58-4.65-58.08-12.28-106.32-41.38-144.42-86.81-30.87-36.81-49.87-79.17-56.67-126.84-1.12-7.88-2-15.8-3-23.7,0-8.67,0-17.33,0-26,.35-1.95,.76-3.89,1.02-5.84,1.26-9.56,1.96-19.22,3.78-28.67,11.4-59.24,40.33-108.45,86.15-147.54C127.93,29.4,170.66,10.11,218.81,3.05,226.85,1.87,234.94,1.01,243,0c8.67,0,17.33,0,26,0,1.95,.34,3.88,.79,5.84,1.01,7.27,.83,14.62,1.21,21.82,2.42,53.81,9.07,100.43,32.53,139.15,71,40.38,40.11,64.95,88.44,73.2,144.89,1.15,7.87,2,15.78,2.99,23.68ZM256.06,11.58C121.23,11.5,11.66,121.03,11.61,255.93c-.05,134.86,109.44,244.41,244.33,244.49,134.84,.07,244.39-109.44,244.45-244.37,.06-134.88-109.38-244.39-244.33-244.47Z"/><path d="M402.51,93.34c-21.03,2.61-33.39,12.9-37.24,31.04-2.65,12.48,.43,24.18,6.23,35.18,4.27,8.09,9.01,15.93,13.74,23.77,12.28,20.39,20.73,42.13,18.31,66.22-1.45,14.44-5.12,28.8-9.11,42.81-8.74,30.7-18.32,61.16-27.57,91.72-.28,.94-.67,1.84-1.39,3.79-26.43-78.61-52.55-156.31-78.78-234.33,8.37-.82,16.12-1.51,23.86-2.35,5.96-.65,9.57-4.51,9.31-9.69-.28-5.55-4.23-8.93-10.59-8.71-21.8,.75-43.6,2.13-65.41,2.23-16.63,.07-33.27-1.52-49.91-2.22-6.2-.26-10.01,3.39-10.11,9.14-.09,5.01,2.83,8.53,7.99,9.16,6.44,.79,12.91,1.57,19.38,1.87,3.03,.14,4.32,1.27,5.3,3.98,10.39,28.78,20.93,57.51,31.3,86.3,.68,1.88,.99,4.35,.39,6.18-15.24,46.08-30.63,92.12-46.01,138.16-.15,.46-.44,.88-.99,1.97-26.54-78.95-52.91-157.38-79.35-236.02,8.3-.81,16.07-1.5,23.83-2.34,5.97-.65,9.55-4.46,9.33-9.66-.23-5.55-4.19-8.96-10.54-8.74-21.64,.74-43.27,1.58-64.9,2.37-1.79,.07-3.59,0-6.81,0,35.59-51.23,82.51-83.23,142.56-94.67,72.59-13.82,142.26,10.5,187.16,52.85Z"/><path d="M260.43,277.51c22.5,61.62,45,123.23,67.49,184.83-21.27,14.76-98.42,17.04-133.5,3.79,21.62-62.82,43.24-125.66,64.86-188.5,.38-.04,.76-.08,1.15-.11Z"/><path d="M159.6,452.81C46.51,396.99,10.66,265.43,55.61,167.9c34.69,95.03,69.16,189.48,103.99,284.91Z"/><path d="M367.1,444.68c3.96-11.48,7.71-22.42,11.5-33.35,20.59-59.37,41.32-118.69,61.72-178.13,9.07-26.43,10.97-45.78,9.21-79.53,52.21,92.78,25.41,228.79-82.42,291.01Z"/></g></g></svg>